<svg width="71" height="70" viewBox="0 0 71 70" fill="none" xmlns="http://www.w3.org/2000/svg">
<g clip-path="url(#clip0_15_154)">
<path d="M70.5 37.7344C70.0807 38.6823 69.3698 39.0651 68.3307 39.0286C67.0364 38.974 65.7422 39.0286 64.4297 39.0104C63.0989 38.9922 62.4609 38.3542 62.4609 37.0234C62.4427 35.7292 62.4609 34.4349 62.4609 33.1224C62.4609 31.6094 63.0625 31.0078 64.5573 30.9896C64.7396 30.9896 64.9219 30.9714 65.1953 30.9531C64.2291 24.3906 61.4948 18.7396 56.8828 14.0182C52.125 9.16927 46.3281 6.30729 39.6015 5.30469C39.2734 7.41927 39.2734 7.41927 38.2344 8.05729C38.362 8.25781 38.4896 8.47656 38.6354 8.67708C40.4948 11.4115 42.3359 14.1458 44.1953 16.8802C44.3411 17.0807 44.487 17.2995 44.5781 17.5182C44.7969 18.0104 44.6328 18.4297 44.2317 18.7214C43.8125 19.013 43.3568 18.9766 42.9739 18.6484C42.7916 18.4844 42.664 18.2656 42.5182 18.0469C40.7135 15.3854 38.9088 12.7422 37.1041 10.0807C36.9765 9.89844 36.8489 9.71615 36.6302 9.40625C36.5937 9.71615 36.5573 9.89844 36.5573 10.0807C36.5573 14.8021 36.5573 19.5052 36.539 24.2266C36.539 24.6458 36.6666 24.8646 37.0495 25.0469C38.526 25.776 39.2552 27.3802 38.8724 28.9297C38.4896 30.4974 37.1041 31.5729 35.4818 31.5729C33.8958 31.5729 32.5286 30.4974 32.1458 28.9479C31.763 27.3984 32.4922 25.7943 33.9505 25.0469C34.2786 24.8828 34.4791 24.737 34.4791 24.2995C34.4609 19.487 34.4609 14.6927 34.4609 9.88021C34.4609 9.77083 34.4427 9.66146 34.4245 9.40625C34.2422 9.64323 34.1146 9.77083 34.0052 9.91667C30.1771 15.5495 26.3489 21.1823 22.539 26.8151C22.1015 27.4714 22.1562 27.4896 22.8489 27.8177C24.1797 28.4557 25.5651 29.0391 26.7317 29.8776C28.6823 31.2995 29.6302 33.3229 29.6302 35.7839C29.6302 36.4583 29.6302 37.151 29.6302 37.9349C30.2135 37.9349 30.7422 37.9349 31.2708 37.9349C31.7995 37.9349 32.3099 37.9349 32.8385 37.9349C33.6224 37.9349 34.1146 38.3359 34.0963 38.974C34.0781 39.5938 33.6041 39.9948 32.8021 39.9948C31.4531 39.9948 30.1041 40.013 28.7734 39.9948C28.2265 39.9766 28.026 40.1771 28.0807 40.7057C28.1172 41.1615 28.0807 41.6172 28.0807 42.1094C33.0208 42.1094 37.9062 42.1094 42.8646 42.1094C42.8646 41.526 42.9193 40.9427 42.8281 40.3958C42.8099 40.2318 42.4271 40.013 42.2083 40.013C40.7135 39.9766 39.2005 40.013 37.7057 39.9948C36.9036 39.9766 36.4114 39.3932 36.5937 38.7188C36.7396 38.1901 37.1224 37.9531 37.6692 37.9531C38.8541 37.9531 40.039 37.9531 41.3333 37.9531C41.3333 37.4974 41.3515 37.0781 41.3333 36.6589C41.0781 32.5755 43.138 30.0052 46.6745 28.3828C47.1666 28.1641 47.6771 27.9635 48.2057 27.7995C48.7526 27.6354 48.8255 27.3984 48.4974 26.9245C47.4401 25.4115 46.4192 23.8802 45.3802 22.349C44.9791 21.7474 45.0338 21.1823 45.4713 20.8177C45.9271 20.4531 46.6015 20.526 46.9661 21.0729C48.1328 22.75 49.2995 24.4453 50.4114 26.1589C51.2682 27.4896 50.612 29.0573 49.1172 29.6589C48.0052 30.1146 46.875 30.5521 45.8724 31.2083C44.1953 32.2839 43.3385 33.9062 43.375 35.9479C43.375 36.1667 43.375 36.4036 43.375 36.6224C43.3568 37.4245 43.2838 38.1719 44.1771 38.7188C44.5963 38.9922 44.8333 39.8125 44.8698 40.3958C44.9609 41.8724 44.9062 43.349 44.9062 44.8438C44.9062 45.6094 44.5234 46.0469 43.9036 46.0469C43.2838 46.0651 42.8828 45.6276 42.8463 44.8802C42.8463 44.6979 42.8463 44.5156 42.8463 44.2786C37.9245 44.2786 33.039 44.2786 28.0625 44.2786C28.0625 44.6797 28.0625 45.1172 28.0625 45.5365C28.0625 47.1224 28.0807 48.7266 28.0443 50.3125C28.026 50.8594 28.2265 51.0234 28.7552 51.0234C33.2213 51.0052 37.6875 51.0052 42.1536 51.0234C42.7005 51.0234 42.901 50.8229 42.8463 50.2943C42.8281 50.0208 42.8281 49.7474 42.8463 49.474C42.9193 48.8906 43.3568 48.4896 43.9036 48.5078C44.4505 48.526 44.8515 48.9453 44.888 49.5286C44.9062 49.9844 44.9062 50.4401 44.888 50.8958C44.8151 51.9714 43.9583 52.8646 42.901 53.0104C42.6458 53.0469 42.4088 53.0469 42.1536 53.0469C37.6875 53.0469 33.2213 53.0469 28.7552 53.0469C27.8073 53.0469 26.9505 52.8464 26.4583 51.9896C26.2031 51.5521 26.039 51.0052 26.039 50.513C26.0026 47.1589 26.0208 43.8229 26.0208 40.4688C26.0208 39.5026 26.4036 38.7734 27.2239 38.2266C27.388 38.1172 27.5338 37.862 27.5521 37.6432C27.6067 37.1875 27.5521 36.7318 27.5703 36.276C27.7161 33.5599 26.4036 31.7188 24.0703 30.5156C23.414 30.1693 22.7031 29.9141 21.9922 29.6589C20.1875 29.0026 19.6224 27.3802 20.7161 25.7943C24.5989 20.0703 28.4818 14.3281 32.3646 8.60417C32.5104 8.40365 32.638 8.1849 32.8021 7.92969C31.4349 7.51042 31.4166 6.41667 31.4531 5.32292C19.4401 6.5625 7.5729 16.8073 5.84113 30.8802C6.15102 30.8984 6.46092 30.8984 6.77081 30.9167C7.79165 30.9714 8.48435 31.5729 8.50258 32.5755C8.55727 34.1432 8.55727 35.7292 8.50258 37.2969C8.46613 38.263 7.79165 38.901 6.8255 38.9193C5.27602 38.9557 3.72654 38.9375 2.17706 38.9193C1.30206 38.9193 0.828105 38.3542 0.48175 37.6615C0.48175 35.8385 0.48175 34.0156 0.48175 32.1927C1.08331 30.6068 2.50519 30.9714 3.65363 30.8984C5.74998 18.6484 12.4583 10.0443 23.9974 5.04948C20.0963 5.04948 16.3958 5.06771 12.6771 5.03125C12.1484 5.03125 11.8567 5.14062 11.6015 5.66927C10.8906 7.14583 9.21352 7.875 7.62758 7.49219C6.0781 7.10938 4.91144 5.66927 4.89321 4.0651C4.87498 2.46094 6.02342 0.966146 7.5729 0.565104C9.19529 0.145833 10.8359 0.875 11.638 2.33333C11.7474 2.55208 11.8567 2.77083 11.9479 2.9349C18.4922 2.9349 24.9635 2.9349 31.526 2.9349C31.4349 1.73177 31.3802 0.546875 32.7656 0C34.5885 0 36.4114 0 38.2344 0C39.6562 0.528646 39.5104 1.80469 39.5286 2.98958C39.8385 2.98958 40.0573 2.98958 40.2943 2.98958C46.3099 2.98958 52.3255 2.98958 58.3411 2.98958C58.8333 2.98958 59.125 2.89844 59.362 2.38802C60.0729 0.875 61.75 0.164063 63.3724 0.546875C64.9219 0.911458 66.0703 2.38802 66.0703 3.99219C66.0703 5.59635 64.9401 7.05469 63.3724 7.45573C61.7682 7.85677 60.1094 7.10938 59.3255 5.63281C59.2161 5.43229 59.125 5.23177 59.0521 5.08594C55.0416 5.08594 51.0859 5.08594 47.0937 5.08594C58.5234 10.0625 65.2135 18.6667 67.2916 30.9714C68.4948 30.9531 69.862 30.7161 70.4635 32.2474C70.5 34.0885 70.5 35.9115 70.5 37.7344ZM37.3958 5.96094C37.3958 4.64844 37.3958 3.3724 37.3958 2.11458C36.0833 2.11458 34.8255 2.11458 33.5859 2.11458C33.5859 3.42708 33.5859 4.6849 33.5859 5.96094C34.8802 5.96094 36.1198 5.96094 37.3958 5.96094ZM6.46092 33.0859C5.14842 33.0859 3.87238 33.0859 2.61456 33.0859C2.61456 34.3984 2.61456 35.6562 2.61456 36.8958C3.92706 36.8958 5.18488 36.8958 6.46092 36.8958C6.46092 35.6016 6.46092 34.362 6.46092 33.0859ZM64.5573 36.8958C65.8698 36.8958 67.1458 36.8958 68.3854 36.8958C68.3854 35.5833 68.3854 34.3255 68.3854 33.0859C67.0729 33.0859 65.8151 33.0859 64.5026 33.0859C64.5026 34.2708 64.5026 35.4193 64.5026 36.5495C64.5026 36.6589 64.539 36.7682 64.5573 36.8958ZM9.97915 4.04688C9.99737 3.20833 9.3229 2.51562 8.48435 2.4974C7.66404 2.4974 6.9531 3.20833 6.9531 4.02865C6.9531 4.83073 7.60935 5.50521 8.42967 5.52344C9.28644 5.54167 9.96092 4.88542 9.97915 4.04688ZM62.5521 5.50521C63.3906 5.48698 64.0651 4.79427 64.0469 3.95573C64.0104 3.15365 63.3359 2.47917 62.5338 2.47917C61.7135 2.47917 61.0208 3.17188 61.0208 4.01042C61.0208 4.88542 61.6953 5.52344 62.5521 5.50521ZM36.8854 28.1458C36.8672 27.362 36.2838 26.7786 35.4818 26.7786C34.6979 26.7786 34.0963 27.362 34.0963 28.1641C34.0963 28.9844 34.6979 29.5859 35.5182 29.5677C36.3203 29.5312 36.9036 28.9297 36.8854 28.1458Z" fill="url(#paint0_linear_15_154)"/>
<path d="M32.7656 70C31.7812 69.5807 31.4349 68.8151 31.4713 67.7578C31.526 66.4818 31.4713 65.2057 31.4896 63.9479C31.5078 62.6172 32.1458 61.9792 33.4401 61.9609C34.8073 61.9427 36.1745 61.9427 37.5234 61.9609C38.8359 61.9792 39.4739 62.6172 39.4739 63.9479C39.4922 65.2422 39.4375 66.5365 39.4922 67.8307C39.5286 68.8698 39.1458 69.5807 38.1979 70C36.4114 70 34.5885 70 32.7656 70ZM33.5859 67.9036C34.9166 67.9036 36.1745 67.9036 37.3958 67.9036C37.3958 66.5911 37.3958 65.3333 37.3958 64.0573C36.1015 64.0573 34.862 64.0573 33.5859 64.0573C33.5859 65.3516 33.5859 66.6094 33.5859 67.9036Z" fill="url(#paint1_linear_15_154)"/>
<path d="M7.46352 50.4218C7.31769 50.3124 6.97133 50.1848 6.80727 49.9296C6.46092 49.3827 6.18748 48.7629 5.93227 48.1614C5.71352 47.6327 5.93227 47.1952 6.388 46.94C6.89842 46.6666 7.40883 46.7577 7.7005 47.2499C8.06508 47.8515 8.37498 48.4895 8.61196 49.1458C8.84894 49.7655 8.30206 50.4218 7.46352 50.4218Z" fill="url(#paint2_linear_15_154)"/>
<path d="M63.5 50.4219C62.6979 50.4219 62.1328 49.7657 62.3698 49.1641C62.625 48.4897 62.9531 47.8334 63.3359 47.2136C63.6094 46.7761 64.0833 46.7032 64.5573 46.9219C65.013 47.1407 65.2865 47.56 65.1042 48.0339C64.849 48.7084 64.5208 49.3647 64.1563 49.9844C64.0104 50.2397 63.6458 50.3308 63.5 50.4219Z" fill="url(#paint3_linear_15_154)"/>
<path d="M17.7265 59.8281C17.7265 60.7031 16.8698 61.2317 16.2135 60.8125C15.6302 60.4479 15.1015 60.0104 14.6094 59.5547C14.2265 59.2083 14.1901 58.7526 14.4818 58.3151C14.7552 57.8958 15.2291 57.6588 15.6666 57.914C16.3411 58.3333 16.9427 58.862 17.5443 59.3724C17.6719 59.4817 17.6901 59.737 17.7265 59.8281Z" fill="url(#paint4_linear_15_154)"/>
<path d="M55.8984 57.8411C56.0442 57.9687 56.4453 58.151 56.5546 58.4426C56.664 58.7343 56.6276 59.2812 56.427 59.4817C55.9348 60.0103 55.3515 60.4661 54.7135 60.8124C54.4583 60.9583 53.9114 60.8671 53.6744 60.6848C53.4375 60.4843 53.3098 60.0103 53.3281 59.6822C53.3645 59.19 55.1692 57.8411 55.8984 57.8411Z" fill="url(#paint5_linear_15_154)"/>
<path d="M10.4896 52.7918C11.2187 52.81 12.7135 54.6876 12.5495 55.3986C12.4036 56.1277 11.5104 56.4923 10.9635 55.9819C10.4349 55.4897 9.96092 54.9064 9.59634 54.3048C9.17707 53.6303 9.74217 52.7736 10.4896 52.7918Z" fill="url(#paint6_linear_15_154)"/>
<path d="M59.5078 56.2006C58.6692 56.2188 58.1223 55.3803 58.5416 54.7058C58.9244 54.1224 59.3984 53.5756 59.8723 53.0652C60.2005 52.7188 60.7109 52.6459 61.039 52.974C61.2942 53.2474 61.5859 53.849 61.4583 54.0495C61.0026 54.7969 60.401 55.4349 59.8177 56.0912C59.7447 56.1823 59.5625 56.1823 59.5078 56.2006Z" fill="url(#paint7_linear_15_154)"/>
<path d="M23.7604 63.1822C23.7604 64.1484 23.1041 64.6223 22.375 64.3671C21.7734 64.1484 21.2083 63.8567 20.6614 63.5468C20.151 63.2551 20.0416 62.7629 20.2604 62.2525C20.4609 61.7603 21.0442 61.5416 21.5729 61.7603C22.1198 61.9791 22.6666 62.2161 23.177 62.526C23.4687 62.7082 23.651 63.0546 23.7604 63.1822Z" fill="url(#paint8_linear_15_154)"/>
<path d="M50.8307 62.8724C50.7395 63.0001 50.6119 63.3646 50.375 63.5105C49.7916 63.8568 49.1718 64.1485 48.5338 64.3855C48.0052 64.5678 47.513 64.349 47.3125 63.8204C47.1119 63.2917 47.2578 62.8178 47.7864 62.5443C48.3515 62.2527 48.9166 61.961 49.5182 61.7422C50.1744 61.487 50.8307 61.9792 50.8307 62.8724Z" fill="url(#paint9_linear_15_154)"/>
<path d="M6.1328 42.7109C6.1328 43.3854 5.87759 43.7318 5.3854 43.8594C4.85676 43.987 4.41926 43.8047 4.21874 43.2943C4.0729 42.9479 3.98176 42.5651 3.9453 42.1823C3.89061 41.6354 4.14582 41.2526 4.6927 41.125C5.22134 40.9792 5.64061 41.1797 5.85936 41.6901C5.98697 42.0547 6.05988 42.4557 6.1328 42.7109Z" fill="url(#paint10_linear_15_154)"/>
<path d="M64.8854 42.6562C64.9401 42.4375 65.013 42.0911 65.1224 41.7812C65.3229 41.2343 65.7239 40.9974 66.3073 41.1067C66.8541 41.2161 67.164 41.6901 67.0911 42.2734C67.0547 42.5833 66.9635 42.8932 66.8541 43.1849C66.6536 43.7317 66.2344 43.9687 65.6693 43.8593C65.0859 43.75 64.8489 43.3489 64.8854 42.6562Z" fill="url(#paint11_linear_15_154)"/>
<path d="M29.539 65.3151C29.5208 65.8984 29.0651 66.3177 28.4635 66.2995C27.3698 66.263 26.7135 65.8073 26.7318 65.0781C26.75 64.4948 27.1875 64.0938 27.789 64.0938C28.8828 64.112 29.5573 64.5859 29.539 65.3151Z" fill="url(#paint12_linear_15_154)"/>
<path d="M44.2682 65.1146C44.2318 65.9896 43.539 66.1719 42.4818 66.2813C41.8984 66.336 41.4427 65.8438 41.4609 65.2604C41.4791 64.5495 42.1901 64.0755 43.2474 64.0938C43.8672 64.0938 44.2864 64.5313 44.2682 65.1146Z" fill="url(#paint13_linear_15_154)"/>
</g>
<defs>
<linearGradient id="paint0_linear_15_154" x1="35.4909" y1="0" x2="35.4909" y2="53.0469" gradientUnits="userSpaceOnUse">
<stop stop-color="white"/>
<stop offset="1" stop-color="#FBAA19"/>
</linearGradient>
<linearGradient id="paint1_linear_15_154" x1="35.4816" y1="61.9473" x2="35.4816" y2="70" gradientUnits="userSpaceOnUse">
<stop stop-color="white"/>
<stop offset="1" stop-color="#FBAA19"/>
</linearGradient>
<linearGradient id="paint2_linear_15_154" x1="7.25716" y1="46.7881" x2="7.25716" y2="50.4218" gradientUnits="userSpaceOnUse">
<stop stop-color="white"/>
<stop offset="1" stop-color="#FBAA19"/>
</linearGradient>
<linearGradient id="paint3_linear_15_154" x1="63.7383" y1="46.8025" x2="63.7383" y2="50.4219" gradientUnits="userSpaceOnUse">
<stop stop-color="white"/>
<stop offset="1" stop-color="#FBAA19"/>
</linearGradient>
<linearGradient id="paint4_linear_15_154" x1="16.0077" y1="57.8086" x2="16.0077" y2="60.9589" gradientUnits="userSpaceOnUse">
<stop stop-color="white"/>
<stop offset="1" stop-color="#FBAA19"/>
</linearGradient>
<linearGradient id="paint5_linear_15_154" x1="54.9708" y1="57.8411" x2="54.9708" y2="60.8847" gradientUnits="userSpaceOnUse">
<stop stop-color="white"/>
<stop offset="1" stop-color="#FBAA19"/>
</linearGradient>
<linearGradient id="paint6_linear_15_154" x1="11.0077" y1="52.7915" x2="11.0077" y2="56.2198" gradientUnits="userSpaceOnUse">
<stop stop-color="white"/>
<stop offset="1" stop-color="#FBAA19"/>
</linearGradient>
<linearGradient id="paint7_linear_15_154" x1="59.9433" y1="52.7629" x2="59.9433" y2="56.2009" gradientUnits="userSpaceOnUse">
<stop stop-color="white"/>
<stop offset="1" stop-color="#FBAA19"/>
</linearGradient>
<linearGradient id="paint8_linear_15_154" x1="21.957" y1="61.6755" x2="21.957" y2="64.4354" gradientUnits="userSpaceOnUse">
<stop stop-color="white"/>
<stop offset="1" stop-color="#FBAA19"/>
</linearGradient>
<linearGradient id="paint9_linear_15_154" x1="49.0285" y1="61.675" x2="49.0285" y2="64.4487" gradientUnits="userSpaceOnUse">
<stop stop-color="white"/>
<stop offset="1" stop-color="#FBAA19"/>
</linearGradient>
<linearGradient id="paint10_linear_15_154" x1="5.03542" y1="41.0786" x2="5.03542" y2="43.8986" gradientUnits="userSpaceOnUse">
<stop stop-color="white"/>
<stop offset="1" stop-color="#FBAA19"/>
</linearGradient>
<linearGradient id="paint11_linear_15_154" x1="65.9917" y1="41.0807" x2="65.9917" y2="43.8854" gradientUnits="userSpaceOnUse">
<stop stop-color="white"/>
<stop offset="1" stop-color="#FBAA19"/>
</linearGradient>
<linearGradient id="paint12_linear_15_154" x1="28.1354" y1="64.0938" x2="28.1354" y2="66.3001" gradientUnits="userSpaceOnUse">
<stop stop-color="white"/>
<stop offset="1" stop-color="#FBAA19"/>
</linearGradient>
<linearGradient id="paint13_linear_15_154" x1="42.8646" y1="64.0933" x2="42.8646" y2="66.2854" gradientUnits="userSpaceOnUse">
<stop stop-color="white"/>
<stop offset="1" stop-color="#FBAA19"/>
</linearGradient>
<clipPath id="clip0_15_154">
<rect width="70" height="70" fill="white" transform="translate(0.5)"/>
</clipPath>
</defs>
</svg>
