<svg width="71" height="68" viewBox="0 0 71 68" fill="none" xmlns="http://www.w3.org/2000/svg">
<g clip-path="url(#clip0_15_193)">
<path d="M71 51.1832C71 53.8028 71 56.4041 71 59.0237C70.4823 59.9397 69.5393 59.8114 68.6148 59.8481C68.6148 62.5959 68.6148 65.2888 68.6148 67.9817C67.8013 67.9817 67.0802 67.9817 66.2667 67.9817C66.2667 65.2522 66.2667 62.5776 66.2667 59.7931C65.4346 59.7931 64.695 59.7931 63.9555 59.7931C63.9555 58.9871 63.9555 58.2543 63.9555 57.4483C65.5271 57.4483 67.0617 57.4483 68.5964 57.4483C68.5964 55.8545 68.5964 54.3524 68.5964 52.7769C68.2635 52.7769 67.9677 52.7769 67.6719 52.7769C56.837 52.7769 46.0021 52.7769 35.1672 52.7769C34.8898 52.7769 34.6125 52.7769 34.3352 52.722C32.6526 52.3556 31.081 51.7328 29.8052 50.5237C29.7682 50.4871 29.6943 50.4871 29.5648 50.4687C29.5648 50.7435 29.5648 51 29.5648 51.2381C29.5648 56.2942 29.5648 61.3502 29.5648 66.4062C29.5648 67.6336 29.1951 68 27.9562 68C19.1737 68 10.3911 68 1.62708 68.0183C0.8875 68.0183 0.332812 67.8168 0 67.1207C0 55.6164 0 44.1304 0 32.6261C0.0369792 32.4978 0.110937 32.3879 0.129427 32.2597C1.01693 27.0571 3.97526 23.5582 8.96745 21.7812C9.85495 21.4698 10.8164 21.3233 11.7964 21.0851C11.593 20.9019 11.4266 20.7554 11.2417 20.6088C5.87969 16.139 5.73177 7.80388 10.9089 3.13254C13.3125 0.952586 16.1599 0 19.3956 0C28.1596 0.018319 36.9052 0 45.6693 0C51.9742 0 58.2792 0.018319 64.5841 0C66.7289 0 68.5779 0.641164 69.7982 2.4181C70.3529 3.22414 70.6117 4.23168 71 5.14763C71 16.5603 71 27.9547 71 39.3675C70.8151 39.972 70.6857 40.6131 70.4083 41.181C69.262 43.4892 67.3021 44.5517 64.7505 44.57C61.6813 44.5884 58.612 44.57 55.5242 44.57C55.2839 44.57 55.0435 44.5884 54.7477 44.6067C55.894 46.5668 55.857 48.4537 54.7477 50.4138C55.1359 50.4138 55.4133 50.4138 55.6906 50.4138C60.2021 50.4138 64.695 50.4138 69.2065 50.4138C69.9461 50.3955 70.5747 50.5237 71 51.1832ZM68.6333 32.7909C68.6333 32.4612 68.6333 32.2047 68.6333 31.9666C68.6333 23.4483 68.5964 14.93 68.6518 6.41164C68.6703 4.21336 67.3206 2.32651 64.5286 2.34483C52.0112 2.39978 39.4753 2.36315 26.9578 2.36315C26.7174 2.36315 26.4771 2.38147 26.0888 2.39978C29.1581 4.90948 30.7667 8.00539 30.7482 11.7974C30.7297 15.6078 29.0656 18.7037 25.9594 21.1584C29.9901 21.6164 33.0594 23.4116 35.5 26.5808C35.5 25.2252 35.463 24.0528 35.5185 22.8987C35.537 22.3675 35.6294 21.7996 35.8143 21.305C37.238 17.7144 38.6987 14.1239 40.1409 10.5517C40.3812 9.9472 40.6586 9.41595 41.4352 9.41595C42.1747 9.43427 42.4521 9.9472 42.674 10.5334C44.1161 14.1239 45.5768 17.6961 47.0005 21.305C47.2039 21.7996 47.2964 22.3675 47.3148 22.8987C47.3518 25.9397 47.3333 28.9806 47.3333 32.0399C47.3333 32.278 47.3333 32.5345 47.3333 32.7909C49.1823 32.7909 50.9388 32.7909 52.7693 32.7909C52.3255 31.472 51.9187 30.2446 51.4935 29.0172C50.9758 27.4968 50.643 25.9397 50.643 24.3093C50.643 21.708 51.5305 19.3815 52.7693 17.1466C53.0466 16.6336 53.1206 16.1756 52.9727 15.5894C51.8078 10.8815 53.287 7.03448 57.0034 3.99353C57.7245 3.40733 58.1867 3.38901 58.8708 3.92026C62.3284 6.61315 63.9555 10.1487 63.1974 14.472C62.92 16.0291 63.1789 17.2198 63.8815 18.5205C65.1758 20.9569 65.6565 23.5948 65.1388 26.306C64.843 27.8448 64.2883 29.347 63.8445 30.8491C63.6596 31.4903 63.4378 32.1315 63.1974 32.8276C65.0463 32.7909 66.8029 32.7909 68.6333 32.7909ZM2.38516 65.6002C9.09687 65.6002 15.7531 65.6002 22.4648 65.6002C22.4648 65.3438 22.4648 65.1422 22.4648 64.9407C22.4648 56.4041 22.4648 47.8675 22.4648 39.3308C22.4648 37.8103 21.6883 36.8394 20.1721 36.5097C19.7284 36.4181 19.2661 36.3631 18.8039 36.3631C13.5344 36.3448 8.26484 36.3631 2.99531 36.3631C2.79193 36.3631 2.58854 36.3815 2.36667 36.3998C2.38516 46.1272 2.38516 55.8362 2.38516 65.6002ZM27.2167 65.6185C27.2167 55.0668 27.2167 44.5517 27.2167 34.0366C28.0487 34.0366 28.7698 34.0366 29.5648 34.0366C29.5648 34.3114 29.5648 34.5679 29.5648 34.806C29.5648 37.9019 29.5094 40.9795 29.6018 44.0754C29.6203 45.083 29.8052 46.1638 30.212 47.0614C31.3029 49.3879 33.2997 50.4138 35.8513 50.4138C40.5477 50.4138 45.2255 50.4138 49.9219 50.4138C50.1437 50.4138 50.3841 50.3955 50.606 50.3772C52.3995 50.194 53.5828 48.4537 53.1021 46.75C52.7323 45.3944 51.6414 44.5884 50.1068 44.5884C45.8172 44.57 41.5091 44.5884 37.2195 44.5884C35.8513 44.5884 35.4815 44.222 35.4815 42.8847C35.4815 40.0086 35.4815 37.1142 35.4815 34.2381C35.463 28.1562 30.8591 23.5399 24.7206 23.4666C20.8378 23.43 16.9549 23.43 13.0721 23.4666C9.44818 23.5032 6.50833 24.9687 4.34505 27.8815C3.0138 29.6767 2.36667 31.7101 2.34818 34.0183C2.82891 34.0183 3.23568 34.0183 3.64245 34.0183C8.85651 34.0183 14.0891 34 19.3031 34.0366C22.1135 34.055 24.9055 36.0517 24.85 39.6606C24.7206 48.0323 24.813 56.4224 24.813 64.7942C24.813 65.069 24.813 65.3254 24.813 65.6185C25.6635 65.6185 26.3846 65.6185 27.2167 65.6185ZM22.4464 12.9149C22.4833 13.1897 22.5203 13.4278 22.5573 13.6843C22.8901 15.4429 23.944 16.6336 25.6081 17.3114C26.1443 17.5312 26.5141 17.4763 26.7729 16.9267C27.0133 16.4138 27.3646 15.9375 27.5865 15.4246C29.0471 11.944 28.6034 8.66487 26.1812 5.78879C23.7221 2.85776 20.468 1.79526 16.7331 2.65625C11.7594 3.79203 8.67161 8.60991 9.63307 13.4644C10.6315 18.5022 15.2909 21.7446 20.431 20.9569C21.8362 20.7371 23.149 20.2425 24.3323 19.3448C21.6698 17.9709 20.2461 15.8825 20.0982 12.9149C20.9487 12.9149 21.6698 12.9149 22.4464 12.9149ZM37.9036 42.2252C38.218 42.2252 38.4953 42.2252 38.7727 42.2252C45.4659 42.2252 52.1776 42.2252 58.8708 42.2252C60.8492 42.2252 62.8461 42.2435 64.8245 42.2252C66.6734 42.2069 68.1711 41.2543 68.4484 39.6606C68.7073 38.2134 68.6333 36.7295 68.7073 35.2457C58.3531 35.2457 48.1469 35.2457 37.9036 35.2457C37.9036 37.5356 37.9036 39.8254 37.9036 42.2252ZM53.25 22.3308C52.8987 23.8147 52.8987 25.2985 53.3055 26.7457C53.8417 28.6325 54.5258 30.4828 55.099 32.3696C55.2284 32.7543 55.4318 32.8459 55.8016 32.8459C57.2253 32.8276 58.6674 32.8276 60.0911 32.8459C60.5534 32.8642 60.7198 32.6627 60.8492 32.2597C61.3115 30.7942 61.8292 29.347 62.3099 27.8998C62.8276 26.2877 63.068 24.6573 62.8276 22.972C62.7536 22.4591 62.6057 22.2942 62.0695 22.2942C59.3146 22.3125 56.5781 22.3125 53.8232 22.3125C53.6568 22.2942 53.4719 22.3125 53.25 22.3308ZM40.2333 32.7909C40.2333 32.5894 40.2333 32.4246 40.2333 32.278C40.2333 29.3836 40.2333 26.4709 40.2333 23.5765C40.2333 23.0636 39.6232 22.4957 39.087 22.4774C38.5508 22.459 37.8852 23.0819 37.8852 23.5948C37.8852 26.1778 37.8852 28.7608 37.8852 31.3438C37.8852 31.82 37.8852 32.2963 37.8852 32.8093C38.6617 32.7909 39.3828 32.7909 40.2333 32.7909ZM44.9482 32.7909C44.9482 32.4795 44.9482 32.2414 44.9482 31.9849C44.9482 29.2737 44.8927 26.5442 44.9852 23.833C45.0036 22.9903 44.5599 22.7705 43.9867 22.5323C43.4875 22.3308 42.5815 22.9353 42.5815 23.4483C42.5815 26.4343 42.5815 29.4386 42.5815 32.4246C42.5815 32.5345 42.6185 32.6444 42.637 32.7909C43.3951 32.7909 44.1161 32.7909 44.9482 32.7909ZM41.4167 13.7209C40.5477 15.8825 39.7526 17.861 38.9576 19.8211C39.6417 20.1509 40.2888 20.4073 40.8805 20.7371C41.2318 20.9386 41.5276 20.9569 41.8974 20.7554C42.5076 20.4256 43.1732 20.1509 43.8573 19.8211C43.0807 17.8244 42.2672 15.8459 41.4167 13.7209ZM55.1544 10.9914C55.931 11.1746 56.6151 11.3761 57.3177 11.5043C57.4841 11.5409 57.7615 11.486 57.8539 11.3578C58.6305 10.3869 59.4995 10.4052 60.4609 11.028C60.5719 11.1013 60.7013 11.1196 60.9232 11.2112C60.4794 9.1778 59.5919 7.52909 58.0203 6.21013C56.4857 7.49246 55.5797 9.04957 55.1544 10.9914ZM54.0266 19.8761C56.726 19.8761 59.2961 19.8761 61.9586 19.8761C61.5888 19.1433 61.2745 18.4838 60.9232 17.861C60.8307 17.7144 60.5534 17.6045 60.3685 17.6045C58.7784 17.5862 57.1883 17.5862 55.5982 17.6045C55.4133 17.6045 55.1544 17.6961 55.0805 17.8244C54.7107 18.4655 54.3964 19.1433 54.0266 19.8761ZM54.9695 13.3728C55.025 13.8125 55.0805 14.1606 55.099 14.4903C55.1359 15.0765 55.4133 15.278 56.0234 15.2597C57.3362 15.2047 58.649 15.2047 59.9617 15.2597C60.5534 15.278 60.7568 15.0582 60.8492 14.5269C60.9417 14.069 60.8307 13.8491 60.387 13.6476C59.7953 13.3728 59.3146 13.0248 58.7229 13.7392C58.5195 13.9957 57.9279 14.0506 57.5211 13.9774C56.726 13.8491 55.894 13.5927 54.9695 13.3728Z" fill="url(#paint0_linear_15_193)"/>
<path d="M43.7648 37.5721C43.7648 38.3415 43.7648 39.056 43.7648 39.8254C43.0067 39.8254 42.2857 39.8254 41.4906 39.8254C41.4906 39.0926 41.4906 38.3599 41.4906 37.5721C42.2302 37.5721 42.9513 37.5721 43.7648 37.5721Z" fill="url(#paint1_linear_15_193)"/>
</g>
<defs>
<linearGradient id="paint0_linear_15_193" x1="35.5" y1="0" x2="35.5" y2="68.0183" gradientUnits="userSpaceOnUse">
<stop stop-color="white"/>
<stop offset="1" stop-color="#FBAA19"/>
</linearGradient>
<linearGradient id="paint1_linear_15_193" x1="42.6277" y1="37.5721" x2="42.6277" y2="39.8254" gradientUnits="userSpaceOnUse">
<stop stop-color="white"/>
<stop offset="1" stop-color="#FBAA19"/>
</linearGradient>
<clipPath id="clip0_15_193">
<rect width="71" height="68" fill="white"/>
</clipPath>
</defs>
</svg>
