<svg width="75" height="71" viewBox="0 0 75 71" fill="none" xmlns="http://www.w3.org/2000/svg">
<g clip-path="url(#clip0_15_207)">
<path d="M10.7663 9.3926C10.483 9.00882 10.3211 8.78663 10.1592 8.58464C9.36994 7.61508 9.41042 6.58492 10.2806 5.67596C10.9282 5.00939 11.5758 4.34282 12.2639 3.69644C13.1746 2.82788 14.2067 2.78748 15.1781 3.61565C15.9471 4.26202 16.7566 4.48421 17.6875 4.08023C18.5577 3.69644 18.9625 2.98947 19.0434 2.06031C19.1851 0.646373 19.8934 0.0201991 21.3303 0C22.0588 0 22.7874 0 23.5159 0C25.3171 0 25.8837 0.504979 26.1468 2.2825C26.3289 3.55505 27.4015 4.42361 28.6562 4.22162C29.1015 4.14082 29.5467 3.89844 29.911 3.61565C31.024 2.76728 31.9954 2.80768 33.0073 3.77724C33.5942 4.34282 34.1608 4.90839 34.7275 5.47397C35.7798 6.54452 35.8203 7.47368 34.8894 8.66543C34.7477 8.84723 34.6263 9.02902 34.4037 9.3724C34.7882 9.3724 35.0513 9.3724 35.3144 9.3724C42.9641 9.3724 50.6341 9.3724 58.2839 9.3724C61.2588 9.3724 62.979 11.0893 62.9992 14.0384C62.9992 16.4017 62.9992 18.765 62.9992 21.1283C62.9992 22.2393 63.1206 22.3605 64.1932 22.3605C66.8443 22.3605 69.4752 22.3605 72.1263 22.3605C73.9881 22.3605 75.0202 23.3906 75.0202 25.2489C75.0202 30.1775 75.0202 35.1061 75.0202 40.0347C75.0202 41.8728 74.0084 42.8828 72.1668 42.8828C69.4145 42.8828 66.6824 42.8828 63.9301 42.8828C63.6468 42.8828 63.3837 42.8828 63.0194 42.8828C62.9992 43.206 62.979 43.4686 62.979 43.7312C62.979 45.5895 62.979 47.4478 62.979 49.3061C62.9587 52.8006 60.6719 55.0427 57.1708 55.0427C51.8888 55.0427 46.5866 55.0427 41.3046 55.0427C41.0011 55.0427 40.7178 55.0427 40.3535 55.0427C40.3737 57.4464 40.8189 59.6683 41.507 61.8498C42.0332 63.5263 42.0534 63.5263 43.7938 63.5263C44.4212 63.5263 45.0486 63.5263 45.6759 63.5263C47.8009 63.5667 49.4401 65.2028 49.4401 67.2632C49.4199 69.2831 47.8009 70.9192 45.7164 70.9394C40.7785 70.9596 35.8405 70.9394 30.9026 70.9394C26.3694 70.9394 21.8362 70.9596 17.303 70.9394C14.6519 70.9192 12.8913 68.3741 13.8019 65.9502C14.3281 64.5363 15.684 63.5667 17.2423 63.5263C18.2744 63.5061 19.3065 63.5061 20.3386 63.5263C20.7232 63.5263 20.9255 63.4051 21.047 63.0415C22.0183 60.4964 22.4433 57.8706 22.5648 55.0225C22.241 55.0225 21.9576 55.0225 21.6541 55.0225C16.4126 55.0225 11.1711 55.0225 5.92957 55.0225C2.24636 55.0831 0 52.841 0 49.1445C0 37.8532 0 26.5619 0 15.2706C0 11.6145 2.24636 9.3926 5.86886 9.3724C7.42715 9.3926 8.98543 9.3926 10.7663 9.3926ZM10.3009 11.8165C10.2604 11.7155 10.2199 11.6145 10.1794 11.5135C8.72234 11.5135 7.26525 11.5135 5.80815 11.5135C3.44037 11.5135 2.12493 12.8265 2.12493 15.1898C2.12493 24.6026 2.12493 33.9952 2.12493 43.408C2.12493 43.6706 2.12493 43.9331 2.12493 44.2159C21.735 44.2159 41.2642 44.2159 60.7933 44.2159C60.7933 43.7715 60.7933 43.3878 60.7933 42.903C60.4493 42.903 60.1659 42.903 59.8624 42.903C54.1149 42.903 48.3675 42.903 42.6201 42.903C41.4665 42.903 41.1427 42.5798 41.1427 41.4285C41.1427 33.5306 41.1427 25.6327 41.1427 17.7349C41.1427 15.9573 42.1546 14.907 43.9355 14.8868C47.3556 14.8666 50.796 14.8666 54.2161 14.907C54.6614 14.907 55.2078 15.1494 55.5518 15.4321C57.0899 16.7249 58.5874 18.0782 60.1052 19.4114C60.3076 19.5932 60.51 19.7346 60.8338 19.9972C60.8338 17.9166 60.8338 15.9775 60.8338 14.0586C60.8338 12.2609 60.0445 11.4933 58.2636 11.4933C50.6948 11.4933 43.1463 11.4933 35.5774 11.4933C35.3346 11.4933 35.112 11.5135 34.7679 11.5337C35.2536 12.2003 35.8405 12.3619 36.5286 12.4225C37.8036 12.5235 38.5321 13.3314 38.5523 14.604C38.5726 15.5331 38.5726 16.4623 38.5523 17.3915C38.5321 18.5832 37.7833 19.3912 36.5893 19.472C35.5977 19.5326 34.8489 19.9366 34.4644 20.8859C34.1001 21.7949 34.3025 22.5826 34.9298 23.33C35.8001 24.3602 35.7393 25.3701 34.7882 26.3397C34.2215 26.9255 33.6549 27.491 33.0882 28.0566C31.9954 29.1474 31.0645 29.1878 29.83 28.2182C28.98 27.5516 28.0289 27.4708 27.1587 28.0162C26.4908 28.4404 26.1873 29.0464 26.1063 29.8341C25.9444 31.3087 25.2563 31.9147 23.779 31.9349C22.929 31.9551 22.0588 31.9551 21.2089 31.9349C19.8732 31.8945 19.1649 31.2279 19.0434 29.9149C18.9625 28.9656 18.5375 28.2384 17.6471 27.8546C16.7364 27.4708 15.9471 27.7132 15.1983 28.3192C14.146 29.1878 13.1543 29.1272 12.1627 28.1778C11.5556 27.6122 10.9889 27.0063 10.4021 26.4205C9.39018 25.3903 9.32947 24.4006 10.2402 23.2896C10.8473 22.5624 11.0294 21.7747 10.6651 20.9061C10.2806 20.0174 9.57232 19.573 8.60092 19.5124C7.32596 19.4316 6.59741 18.6438 6.55694 17.3511C6.5367 16.5027 6.5367 15.6341 6.55694 14.7858C6.57717 13.3112 7.26525 12.6245 8.74258 12.4225C9.26875 12.3215 9.77469 12.0185 10.3009 11.8165ZM43.2879 24.4814C43.2677 24.8046 43.2474 25.0469 43.2474 25.2893C43.2474 30.1169 43.2474 34.9445 43.2474 39.7721C43.2474 40.7619 43.2677 40.7821 44.2795 40.7821C53.4471 40.7821 62.6147 40.7821 71.8025 40.7821C72.8548 40.7821 72.8751 40.7821 72.8751 39.7317C72.8751 35.0253 72.8751 30.3189 72.8751 25.6125C72.8751 24.4612 72.8751 24.4612 71.7418 24.4612C62.554 24.4612 53.3459 24.4612 44.1581 24.4612C43.8748 24.4814 43.6117 24.4814 43.2879 24.4814ZM2.12493 46.4378C2.12493 47.4882 2.12493 48.478 2.12493 49.4879C2.12493 49.7101 2.12493 49.9525 2.16541 50.1545C2.40826 51.6088 3.4606 52.639 4.9177 52.8814C5.28198 52.942 5.66649 52.9622 6.051 52.9622C23.01 52.9622 39.969 52.9622 56.928 52.9622C57.3934 52.9622 57.8994 52.942 58.3446 52.841C59.6398 52.5178 60.5505 51.6694 60.7124 50.3767C60.8945 49.1041 60.7528 47.7912 60.7528 46.4378C41.2237 46.4378 21.7148 46.4378 2.12493 46.4378ZM8.7021 17.3107C12.7496 18.0378 14.0853 21.2293 11.8996 24.643C12.5675 25.3095 13.1948 25.9761 13.8424 26.6225C15.1781 25.4711 16.7566 25.1681 18.4363 25.8751C20.1565 26.5821 20.9862 27.9758 21.1886 29.7937C21.9779 29.7937 22.6862 29.7735 23.3743 29.7937C23.8195 29.8139 23.9611 29.6321 24.0219 29.208C24.2647 27.5112 25.2563 26.3801 26.8551 25.7943C28.5146 25.1681 30.0121 25.5721 31.2062 26.5821C31.8942 25.9155 32.5621 25.2893 33.2299 24.6632C30.9431 22.0979 32.3192 17.6945 36.3667 17.3107C36.3667 16.4017 36.3667 15.4725 36.3667 14.5636C34.5049 14.402 33.1692 13.5334 32.4811 11.8367C31.7728 10.1198 32.1168 8.54424 33.2501 7.23129C32.5823 6.52432 31.9549 5.87795 31.3276 5.23158C29.9514 6.40313 28.3931 6.74652 26.6932 6.05974C24.973 5.37297 24.1028 3.99943 23.9409 2.18151C22.9897 2.18151 22.0791 2.18151 21.1684 2.18151C21.0065 4.01963 20.116 5.35277 18.4363 6.05974C16.7161 6.76671 15.1376 6.40313 13.8424 5.31238C13.1341 5.97895 12.4865 6.60512 11.8187 7.23129C12.9924 8.60484 13.3162 10.1602 12.6282 11.8569C11.8996 13.5536 10.5437 14.4222 8.7021 14.5838C8.7021 15.5129 8.7021 16.3815 8.7021 17.3107ZM23.3743 63.5061C28.7169 63.5061 34.2418 63.5061 39.5642 63.5061C39.0178 60.6984 38.4916 57.9312 37.9452 55.1437C33.6144 55.1437 29.1622 55.1437 24.8718 55.1437C24.3659 57.9918 23.86 60.759 23.3743 63.5061ZM31.4895 68.8589C32.4811 68.8589 33.4525 68.8589 34.4441 68.8589C38.1678 68.8589 41.8915 68.8589 45.6152 68.8589C46.5866 68.8589 47.2949 68.1721 47.2949 67.3036C47.2949 66.4148 46.6069 65.7482 45.6355 65.6876C45.4938 65.6876 45.3319 65.6876 45.1902 65.6876C36.0429 65.6876 26.9158 65.6876 17.7685 65.6876C17.5256 65.6876 17.2625 65.6674 17.0197 65.7078C15.8257 65.93 15.2793 67.2632 15.9876 68.2125C16.3923 68.7579 16.959 68.8589 17.5863 68.8589C22.2207 68.8589 26.8551 68.8589 31.4895 68.8589ZM60.1659 22.3201C58.6886 21.0273 57.2518 19.8962 55.997 18.6034C54.7626 17.3107 53.3864 16.9067 51.646 16.9875C49.1365 17.1289 46.6069 17.0279 44.0974 17.0279C43.6724 17.0279 43.2677 17.0481 43.2677 17.6339C43.2677 19.1892 43.2677 20.7445 43.2677 22.3403C48.8937 22.3201 54.4387 22.3201 60.1659 22.3201Z" fill="url(#paint0_linear_15_207)"/>
<path d="M66.5812 32.662C65.3062 31.9146 64.1324 31.2278 62.9384 30.5411C62.7158 30.4199 62.4932 30.2987 62.2908 30.1573C61.7646 29.7937 61.5825 29.2887 61.9063 28.7231C62.2301 28.1576 62.7765 28.0566 63.3432 28.3393C64.1931 28.7837 65.0026 29.2887 65.8324 29.7533C66.8847 30.3593 67.9371 30.945 68.9692 31.5712C70.0418 32.1974 70.062 33.0861 69.0096 33.6921C67.2085 34.7425 65.4074 35.7928 63.586 36.823C62.8575 37.2472 62.2099 37.126 61.8861 36.5604C61.5623 35.9746 61.8051 35.409 62.5741 34.9849C63.8693 34.2173 65.1645 33.4699 66.5812 32.662Z" fill="url(#paint1_linear_15_207)"/>
<path d="M49.4806 32.6621C50.796 33.4296 52.0103 34.1164 53.2043 34.8032C53.4066 34.9244 53.5888 35.0254 53.7912 35.1466C54.3376 35.5102 54.4792 36.0151 54.1554 36.5807C53.8316 37.1463 53.2852 37.2877 52.7186 36.9645C50.7555 35.8535 48.7925 34.7224 46.8497 33.571C46.0807 33.1065 46.0807 32.1975 46.8497 31.7329C48.7723 30.5816 50.7151 29.4908 52.6579 28.3799C53.265 28.0365 53.8721 28.1981 54.1554 28.7232C54.459 29.2484 54.2971 29.8342 53.69 30.1978C52.3543 31.0057 50.9782 31.7935 49.4806 32.6621Z" fill="url(#paint2_linear_15_207)"/>
<path d="M60.8743 28.7636C60.7529 29.1474 60.6921 29.3696 60.6112 29.5716C59.5589 31.9147 58.5065 34.2376 57.4744 36.5605C57.2315 37.0856 56.8875 37.4492 56.2804 37.3886C55.5721 37.328 55.1471 36.6211 55.4506 35.9343C56.5435 33.4498 57.6565 30.9855 58.7696 28.5212C59.0124 27.996 59.4779 27.7334 60.0041 27.9556C60.3481 28.1172 60.6112 28.501 60.8743 28.7636Z" fill="url(#paint3_linear_15_207)"/>
<path d="M31.5299 48.6193C32.2787 48.6193 33.0477 48.5991 33.7965 48.6193C34.5048 48.6395 34.9298 49.0435 34.9298 49.6697C34.9298 50.2757 34.5048 50.72 33.8167 50.72C32.2585 50.7402 30.7002 50.7402 29.1419 50.72C28.4741 50.72 27.9884 50.2353 28.0491 49.6293C28.1098 48.9829 28.4741 48.6193 29.1419 48.6193C29.9312 48.6193 30.7204 48.6193 31.5299 48.6193Z" fill="url(#paint4_linear_15_207)"/>
<path d="M14.3281 15.9372C14.3483 11.4126 18.0315 7.73633 22.5647 7.73633C27.0777 7.73633 30.8014 11.453 30.8014 15.9574C30.8216 20.482 27.0574 24.2188 22.504 24.1986C17.9708 24.1582 14.3078 20.482 14.3281 15.9372ZM16.453 15.9372C16.4328 19.3104 19.1446 22.0373 22.504 22.0575C25.8837 22.0777 28.6764 19.3104 28.6764 15.9372C28.6562 12.6043 25.9039 9.83704 22.5647 9.83704C19.2053 9.85724 16.4733 12.5841 16.453 15.9372Z" fill="url(#paint5_linear_15_207)"/>
</g>
<defs>
<linearGradient id="paint0_linear_15_207" x1="37.5101" y1="0" x2="37.5101" y2="70.9484" gradientUnits="userSpaceOnUse">
<stop stop-color="white"/>
<stop offset="1" stop-color="#FBAA19"/>
</linearGradient>
<linearGradient id="paint1_linear_15_207" x1="65.7658" y1="28.1869" x2="65.7658" y2="37.0767" gradientUnits="userSpaceOnUse">
<stop stop-color="white"/>
<stop offset="1" stop-color="#FBAA19"/>
</linearGradient>
<linearGradient id="paint2_linear_15_207" x1="50.3" y1="28.1987" x2="50.3" y2="37.1349" gradientUnits="userSpaceOnUse">
<stop stop-color="white"/>
<stop offset="1" stop-color="#FBAA19"/>
</linearGradient>
<linearGradient id="paint3_linear_15_207" x1="58.1128" y1="27.8763" x2="58.1128" y2="37.3952" gradientUnits="userSpaceOnUse">
<stop stop-color="white"/>
<stop offset="1" stop-color="#FBAA19"/>
</linearGradient>
<linearGradient id="paint4_linear_15_207" x1="31.4869" y1="48.6104" x2="31.4869" y2="50.7352" gradientUnits="userSpaceOnUse">
<stop stop-color="white"/>
<stop offset="1" stop-color="#FBAA19"/>
</linearGradient>
<linearGradient id="paint5_linear_15_207" x1="22.5647" y1="7.73633" x2="22.5647" y2="24.1987" gradientUnits="userSpaceOnUse">
<stop stop-color="white"/>
<stop offset="1" stop-color="#FBAA19"/>
</linearGradient>
<clipPath id="clip0_15_207">
<rect width="75" height="71" fill="white"/>
</clipPath>
</defs>
</svg>
