<svg width="61" height="70" viewBox="0 0 61 70" fill="none" xmlns="http://www.w3.org/2000/svg">
<g clip-path="url(#clip0_15_40)">
<path d="M36.6424 2.75616e-05C38.012 0.225834 39.3817 0.395189 40.7373 0.663334C43.6178 1.25608 46.2866 2.39922 48.7859 3.95164C53.1491 6.68954 56.4109 10.4153 58.5572 15.0867C60.7599 19.871 61.5224 24.867 60.647 30.0605C59.4185 37.371 55.7331 43.1432 49.6613 47.3912C48.0799 48.5061 46.6961 49.8045 45.7359 51.498C45.6794 51.6109 45.6229 51.7238 45.5099 51.9355C46.5549 51.9355 47.5292 51.9355 48.5176 51.9355C48.5176 52.6976 48.5176 53.3891 48.5176 54.1795C47.388 54.1795 46.2724 54.1936 45.1711 54.1653C44.7333 54.1512 44.4933 54.2782 44.4368 54.7299C44.3662 55.2662 44.2391 55.8024 44.112 56.4375C44.8745 56.4375 45.5664 56.4375 46.2866 56.4375C46.2866 57.2278 46.2866 57.9194 46.2866 58.6815C45.5523 58.6815 44.8463 58.6815 44.0555 58.6815C44.0555 59.627 44.0555 60.502 44.0555 61.377C44.0555 62.9577 43.8437 63.1694 42.2481 63.2117C42.1352 63.2117 42.0222 63.2258 41.8669 63.2399C41.768 63.7903 41.7116 64.3549 41.5562 64.9053C40.7796 67.6008 38.9863 69.2238 36.2752 69.873C36.1764 69.9012 36.0775 69.9577 35.9787 70C35.3433 70 34.7079 70 34.0583 70C32.8016 69.6049 31.559 69.2097 30.5424 68.2924C29.2715 67.121 28.4808 65.6956 28.3113 63.9738C28.2549 63.4093 28.1278 63.1835 27.5206 63.2117C26.3345 63.2541 25.9956 62.8589 25.9815 61.6593C25.9815 60.6996 25.9815 59.7541 25.9815 58.7238C25.2331 58.7238 24.5412 58.7238 23.7787 58.7238C23.7787 57.9476 23.7787 57.2278 23.7787 56.4516C24.4706 56.4516 25.1484 56.4516 25.9109 56.4516C25.7555 55.746 25.6426 55.125 25.459 54.5182C25.4167 54.3629 25.106 54.1936 24.9224 54.1936C23.8069 54.1653 22.6914 54.1795 21.5194 54.1795C21.5194 53.4315 21.5194 52.7258 21.5194 51.9496C22.4655 51.9496 23.4116 51.9496 24.4706 51.9496C23.694 50.3831 22.6491 49.1976 21.3924 48.1533C19.5567 46.6291 17.5799 45.2319 15.9419 43.5101C11.8046 39.1633 9.58772 33.9133 9.13587 27.9436C9.06527 27.0403 9.05115 26.1371 9.00879 25.2057C9.81365 25.2057 10.5338 25.2057 11.2539 25.2057C11.3245 26.4194 11.3387 27.5766 11.4799 28.7198C12.3271 35.5504 15.5183 41.0262 21.0676 45.0766C23.228 46.6573 25.2472 48.3508 26.4051 50.8065C26.8569 51.752 27.3935 51.9637 28.3678 51.9496C33.0134 51.8932 37.6731 51.9214 42.3187 51.9355C42.813 51.9355 43.0812 51.8085 43.293 51.3287C44.3521 49.0565 45.9336 47.1936 48.0234 45.7823C52.1042 43.0303 55.1824 39.4456 56.9898 34.8589C59.5315 28.4093 59.3762 21.9879 56.3968 15.7218C53.6292 9.9214 49.1389 5.94156 43.1377 3.66938C40.6243 2.72382 38.012 2.25809 35.315 2.2722C34.7502 2.2722 34.1854 2.2722 33.5217 2.2722C33.4794 1.496 33.4229 0.733898 33.3805 -0.0281982C34.4537 2.75616e-05 35.5551 2.75616e-05 36.6424 2.75616e-05ZM28.156 56.4234C32.7593 56.4234 37.2919 56.4234 41.8528 56.4234C41.9657 55.6754 42.0646 54.9698 42.1775 54.2218C37.3484 54.2218 32.5898 54.2218 27.7889 54.2218C27.916 54.9698 28.043 55.6895 28.156 56.4234ZM30.5565 63.2541C30.4859 65.7662 32.6604 67.8266 35.1738 67.7137C37.6449 67.6008 39.6782 65.4839 39.4523 63.2541C36.5011 63.2541 33.55 63.2541 30.5565 63.2541ZM41.7963 60.9395C41.7963 60.4174 41.768 59.9093 41.8104 59.4295C41.8528 58.8649 41.6692 58.6956 41.0903 58.6956C37.0377 58.7238 32.9711 58.7097 28.9185 58.7097C28.7208 58.7097 28.5231 58.7379 28.2831 58.752C28.2831 59.5141 28.2831 60.2198 28.2831 60.9537C32.8016 60.9395 37.2636 60.9395 41.7963 60.9395Z" fill="url(#paint0_linear_15_40)"/>
<path d="M13.9368 0C14.5158 0.366935 14.6711 0.917339 14.7417 1.55242C14.9817 3.83871 16.6056 5.3629 18.9072 5.63105C19.3449 5.6875 19.9098 5.92742 20.1498 6.28024C20.6581 7 20.0651 7.83266 19.0202 7.91734C18.0317 7.9879 17.1563 8.29839 16.3797 8.91936C15.4195 9.70968 14.8547 10.6976 14.7276 11.9536C14.6146 13.0544 14.2757 13.5202 13.5838 13.5484C13.0049 13.5766 12.4542 13.0827 12.3554 12.0383C12.1435 9.68145 10.4915 8.15726 8.14748 7.94556C7.1873 7.86089 6.73545 7.42339 6.80605 6.6754C6.86253 6.04032 7.28614 5.71573 8.18985 5.63105C9.92665 5.48992 11.1975 4.62903 11.9459 3.07661C12.1859 2.58266 12.3271 2.00403 12.3695 1.43952C12.426 0.790323 12.666 0.310484 13.2449 0.0141129C13.485 0 13.7109 0 13.9368 0ZM15.0382 6.78831C14.5723 6.30847 13.9933 5.6875 13.5979 5.26411C13.1037 5.74395 12.4966 6.30847 12.0306 6.74597C12.5107 7.21169 13.1179 7.83266 13.5273 8.24194C14.0074 7.79032 14.6146 7.21169 15.0382 6.78831Z" fill="url(#paint1_linear_15_40)"/>
<path d="M44.7192 8.17138C48.3764 7.02824 51.6523 10.1472 50.5792 13.9294C52.0336 14.5928 53.1914 15.6089 53.7986 17.1472C54.4058 18.6996 54.3069 20.2097 53.5868 21.748C55.366 22.5948 56.4532 23.9637 56.4532 25.9536C56.4532 27.9436 55.4083 29.3266 53.5868 30.1875C54.1799 31.4436 54.3634 32.7278 54.0387 34.0544C53.6292 35.7198 52.6407 36.9476 51.1299 37.7238C50.7345 37.9355 50.5792 38.0766 50.6921 38.5847C51.4123 41.8165 48.4611 44.6674 45.2558 43.877C45.1005 43.8347 44.9451 43.7924 44.7757 43.75C44.7192 43.8206 44.6345 43.877 44.5921 43.9476C43.3778 45.8528 41.4574 46.6714 39.537 46.121C37.4049 45.5141 36.1481 43.8347 36.134 41.492C36.1199 37.0323 36.134 32.5585 36.134 28.0988C36.134 22.2702 36.134 16.4415 36.134 10.6129C36.134 8.75001 36.7694 7.22582 38.4356 6.26614C40.5537 5.06655 43.0954 5.70163 44.4368 7.73388C44.5356 7.87501 44.6345 8.03026 44.7192 8.17138ZM42.9259 32.7419C43.0389 30.6109 43.9002 28.9879 45.6512 27.9436C47.5433 26.8145 49.506 26.7863 51.4123 27.9153C51.963 28.2399 52.4289 28.2258 52.9514 27.9718C53.9257 27.4919 54.434 26.3629 54.1234 25.3186C53.7421 23.9919 52.4572 23.4698 51.2569 24.1049C49.266 25.1492 47.2891 25.0786 45.4252 23.8367C43.8155 22.7641 42.9824 21.1976 42.94 19.1653C43.5049 19.1653 43.9991 19.1936 44.4933 19.1512C45.0016 19.1089 45.1852 19.2782 45.2699 19.8004C45.5241 21.4093 46.9643 22.5524 48.6164 22.5383C50.2544 22.5242 51.6099 21.3387 51.8924 19.7016C52.1606 18.1492 51.2287 16.5121 49.7178 16.0182C49.4495 15.9335 49.04 15.9899 48.8 16.1311C48.0375 16.5686 47.275 16.8932 46.3572 16.879C46.3572 16.1169 46.3572 15.3972 46.3572 14.6915C47.8539 14.3528 48.5882 13.5202 48.5458 12.2782C48.5035 11.2198 47.7127 10.3589 46.6396 10.1754C45.3687 9.96372 44.578 10.6129 43.9426 12.3488C43.2366 12.3488 42.5447 12.3488 41.8245 12.3488C41.7822 11.4174 42.0505 10.627 42.5588 9.9355C42.813 9.58267 42.7706 9.32864 42.5729 9.01816C42.0928 8.22784 41.3727 7.84679 40.4549 7.90324C39.537 7.9738 38.8593 8.46775 38.5627 9.34275C38.4215 9.76614 38.4074 10.2319 38.4074 10.6835C38.3933 20.8448 38.4074 31.0061 38.4074 41.1674C38.4074 41.4355 38.3933 41.7178 38.4215 41.9859C38.5204 42.9597 39.2687 43.7641 40.2289 43.9617C41.1326 44.1311 42.1917 43.6512 42.5729 42.8044C42.6859 42.5786 42.6576 42.1835 42.5306 41.9718C42.1069 41.2097 41.7539 40.4476 41.8387 39.5161C42.5729 39.5161 43.2648 39.5161 43.9708 39.5161C44.0556 39.8125 44.112 40.1089 44.225 40.377C44.6345 41.3649 45.6653 41.8871 46.7384 41.6895C47.7127 41.5061 48.4752 40.6311 48.5317 39.629C48.5882 38.5565 47.8963 37.6109 46.8796 37.3004C46.6678 37.2299 46.3431 37.0605 46.3289 36.9053C46.2724 36.2843 46.3007 35.6492 46.3007 35C47.2891 35.0141 48.0657 35.3105 48.8282 35.7762C49.04 35.9032 49.3931 35.9738 49.6331 35.9032C51.1157 35.4657 52.1183 33.871 51.9065 32.3468C51.6806 30.6532 50.3391 29.4113 48.687 29.3549C46.922 29.2984 45.5523 30.4274 45.1993 32.1915C45.1569 32.3891 44.931 32.6855 44.7616 32.6996C44.1968 32.7843 43.6037 32.7419 42.9259 32.7419Z" fill="url(#paint2_linear_15_40)"/>
<path d="M25.2896 43.7641C22.1266 44.7238 19.7826 42.6774 19.3873 40.6734C19.2461 39.9536 19.3731 39.1915 19.3449 38.4576C19.3308 38.2601 19.2602 37.9637 19.1048 37.879C15.9984 36.0585 15.1511 33.7016 16.3937 30.2016C14.6428 29.3689 13.5555 28 13.5555 26.0101C13.5555 24.0201 14.6004 22.623 16.422 21.7621C15.843 20.5201 15.6454 19.2641 15.956 17.9516C16.3655 16.2298 17.368 14.9738 18.9495 14.1835C19.3167 14 19.4296 13.8447 19.3308 13.4072C18.5683 10.1472 21.5336 7.25402 24.7671 8.05845C25.0495 8.12902 25.2613 8.22781 25.5014 7.87499C26.7581 5.98386 28.6361 5.2641 30.6129 5.85684C32.6322 6.4637 33.8465 8.14313 33.8606 10.3871C33.8889 12.9556 33.8606 15.5383 33.8606 18.1068C33.8606 25.8548 33.8606 33.6028 33.8606 41.3508C33.8606 43.7218 32.6886 45.4294 30.6553 46.0645C28.6502 46.6855 26.6451 45.9093 25.459 44.0605C25.4308 43.9617 25.3743 43.877 25.2896 43.7641ZM26.0803 12.4052C25.9109 11.9818 25.812 11.5726 25.6143 11.2339C25.0919 10.3589 24.0329 9.99192 23.0586 10.2742C22.1266 10.5423 21.4771 11.4456 21.4771 12.4335C21.4771 13.4355 22.1548 14.3105 23.1433 14.6068C23.3551 14.6774 23.6798 14.8468 23.694 15.002C23.7505 15.623 23.7222 16.2581 23.7222 17.1331C22.7761 16.752 22.0278 16.4274 21.2511 16.1593C20.9405 16.0464 20.5451 15.9476 20.2627 16.0464C17.8764 16.9072 17.3398 20.0826 19.2602 21.7339C21.2511 23.4415 24.287 22.3548 24.7954 19.7863C24.8377 19.5746 25.0213 19.2218 25.1766 19.2076C25.7979 19.1371 26.4333 19.1794 27.097 19.1794C26.9981 21.2964 26.1509 22.8911 24.4423 23.9355C22.5361 25.1068 20.5592 25.1351 18.6248 23.9919C18.0458 23.6532 17.5516 23.6814 17.0292 23.9637C16.1678 24.4435 15.7724 25.1774 15.843 26.1653C15.9136 27.0403 16.5067 27.8447 17.368 28.0564C17.7069 28.1411 18.1729 28.127 18.4553 27.9576C20.0509 27.0121 21.6889 26.8427 23.4398 27.4496C25.5579 28.1835 27.2099 30.5685 27.0264 32.6855C26.3345 32.6855 25.6285 32.6855 24.8942 32.6855C24.8518 32.4738 24.8095 32.2762 24.7671 32.0786C24.4565 30.4839 23.1009 29.3548 21.4771 29.3548C19.825 29.3548 18.4553 30.4839 18.1447 32.121C17.8481 33.7016 18.7236 35.2681 20.2204 35.8609C20.6016 36.0161 20.9264 36.0161 21.2935 35.748C21.9854 35.2399 22.7761 35 23.7222 35.0141C23.7222 35.5645 23.7081 36.0867 23.7222 36.6089C23.7363 37.0322 23.6516 37.2439 23.1715 37.3427C22.0984 37.5544 21.4065 38.5847 21.4771 39.6714C21.5477 40.7581 22.409 41.6189 23.4963 41.7318C24.5977 41.8447 25.5579 41.1956 25.8826 40.1089C25.9391 39.9113 25.9815 39.7278 26.0379 39.5302C26.7581 39.5302 27.4641 39.5302 28.1842 39.5302C28.269 40.4476 27.9724 41.2238 27.4782 41.9153C27.2241 42.2822 27.2523 42.5504 27.4641 42.9032C27.9866 43.7782 29.0879 44.2016 30.0623 43.8911C31.1213 43.5524 31.6155 42.748 31.6155 41.379C31.6155 31.1048 31.6155 20.8306 31.6155 10.5564C31.6155 10.3447 31.6155 10.1472 31.6014 9.93547C31.5308 8.98991 30.8389 8.17136 29.9069 7.94555C29.0173 7.71974 27.9724 8.17136 27.4782 8.96168C27.2664 9.3145 27.2241 9.61087 27.4923 10.006C27.9866 10.6976 28.2831 11.4738 28.1701 12.377C27.4359 12.4052 26.7581 12.4052 26.0803 12.4052Z" fill="url(#paint3_linear_15_40)"/>
<path d="M13.5273 18.0505C13.5414 18.6432 13.1602 19.0807 12.4683 19.1654C11.4093 19.2924 10.4067 19.5182 9.57362 20.2238C8.59932 21.0424 8.06274 22.0726 7.92154 23.3287C7.8933 23.5827 7.92154 23.8932 7.78033 24.0484C7.49793 24.3589 7.1308 24.7118 6.74955 24.7823C6.26945 24.867 5.8176 24.5565 5.70464 24.0061C5.57756 23.4557 5.56344 22.863 5.37987 22.3408C4.75857 20.5484 3.50186 19.49 1.59561 19.2501C0.465982 19.1089 -0.0282308 18.7561 -0.0141105 18.0505C-0.0141105 17.373 0.437741 17.0484 1.55325 16.8932C3.86899 16.5827 5.36575 15.0162 5.59168 12.6876C5.64816 12.0948 5.77524 11.5444 6.4389 11.3468C7.21552 11.121 7.8227 11.6291 7.8933 12.6029C7.99214 14.0283 8.59932 15.1714 9.74307 16.0323C10.5197 16.6109 11.4093 16.8367 12.3553 16.9355C13.1178 17.0202 13.5132 17.4295 13.5273 18.0505ZM6.77779 19.5747C7.22964 19.123 7.83682 18.5021 8.24631 18.0928C7.79445 17.613 7.21552 16.992 6.82015 16.5686C6.34006 17.0343 5.71876 17.6271 5.28103 18.0505C5.73288 18.5162 6.32594 19.123 6.77779 19.5747Z" fill="url(#paint4_linear_15_40)"/>
</g>
<defs>
<linearGradient id="paint0_linear_15_40" x1="35.0053" y1="-0.0281982" x2="35.0053" y2="70" gradientUnits="userSpaceOnUse">
<stop stop-color="white"/>
<stop offset="1" stop-color="#FBAA19"/>
</linearGradient>
<linearGradient id="paint1_linear_15_40" x1="13.5668" y1="0" x2="13.5668" y2="13.5495" gradientUnits="userSpaceOnUse">
<stop stop-color="white"/>
<stop offset="1" stop-color="#FBAA19"/>
</linearGradient>
<linearGradient id="paint2_linear_15_40" x1="46.2905" y1="5.66162" x2="46.2905" y2="46.2893" gradientUnits="userSpaceOnUse">
<stop stop-color="white"/>
<stop offset="1" stop-color="#FBAA19"/>
</linearGradient>
<linearGradient id="paint3_linear_15_40" x1="23.7144" y1="5.65442" x2="23.7144" y2="46.2752" gradientUnits="userSpaceOnUse">
<stop stop-color="white"/>
<stop offset="1" stop-color="#FBAA19"/>
</linearGradient>
<linearGradient id="paint4_linear_15_40" x1="6.75665" y1="11.2937" x2="6.75665" y2="24.7961" gradientUnits="userSpaceOnUse">
<stop stop-color="white"/>
<stop offset="1" stop-color="#FBAA19"/>
</linearGradient>
<clipPath id="clip0_15_40">
<rect width="61" height="70" fill="white"/>
</clipPath>
</defs>
</svg>
