<svg width="107" height="58" viewBox="0 0 107 58" fill="none" xmlns="http://www.w3.org/2000/svg">
<g clip-path="url(#clip0_13_71)">
<path fill-rule="evenodd" clip-rule="evenodd" d="M77.5064 19.2898C77.5064 17.6431 77.9021 15.9703 78.6144 14.6111C80.3028 11.37 83.7059 9.12213 87.6366 9.12213V0C78.5616 0 70.9112 6.22082 68.8272 14.6111C68.4578 16.0748 68.2732 17.7215 68.2732 19.2898V38.3443C71.4125 38.3443 74.2088 36.776 75.8708 34.3975C76.8996 32.9338 77.5064 31.1564 77.5064 29.2222V19.2898Z" fill="#FBAA19"/>
<path fill-rule="evenodd" clip-rule="evenodd" d="M106.42 14.6111C105.575 11.1609 103.755 8.07663 101.302 5.61967C98.1625 2.50926 93.9416 0.444361 89.2458 0.0784302V9.27897C91.409 9.61876 93.3348 10.6381 94.8121 12.1019C95.5508 12.8337 96.1839 13.6963 96.6852 14.6372H80.461C80.3028 14.8725 80.1709 15.1077 80.039 15.3691C79.4322 16.5453 79.1156 17.9306 79.1156 19.3159V20.9103V23.7594H96.6588H106.42C106.789 22.2956 106.974 20.8842 106.974 19.3159C107 17.7215 106.789 16.0748 106.42 14.6111Z" fill="white"/>
<path fill-rule="evenodd" clip-rule="evenodd" d="M87.6366 29.2222C84.0488 29.2222 80.9095 27.3925 79.1156 24.6219V29.2222C79.1156 31.47 78.4034 33.5872 77.1898 35.3123C80.1972 37.2465 83.785 38.3443 87.6366 38.3443C92.9655 38.3443 97.8195 36.201 101.302 32.7246L94.7858 26.2686C92.9655 28.0982 90.4329 29.2222 87.6366 29.2222Z" fill="white"/>
<path fill-rule="evenodd" clip-rule="evenodd" d="M62.1001 5.77645C58.2749 2.03873 53.6847 0.156799 48.3558 0.156799C43.0005 0.156799 38.4366 2.03873 34.6114 5.77645C34.374 6.01169 34.1366 6.24693 33.9255 6.50831C30.9181 9.74941 29.2825 13.5133 28.966 17.826C28.9396 18.3226 28.9132 18.8193 28.9132 19.3159C28.9132 19.8125 28.9396 20.3091 28.966 20.8057C28.6758 22.8184 27.7788 24.5957 26.2488 26.1379C24.3757 28.0459 22.107 28.9869 19.4426 28.9869C16.7781 28.9869 14.5357 28.0459 12.6627 26.1379C10.8161 24.2298 9.86637 21.9558 9.86637 19.342C9.86637 16.676 10.7897 14.402 12.6363 12.4678C14.5094 10.5597 16.7781 9.59258 19.4426 9.59258H22.9512C25.2463 9.59258 27.2248 8.78231 28.8341 7.16176C29.7574 6.24693 30.4169 5.123 30.8126 3.78997C27.515 1.35914 23.7162 0.156799 19.4426 0.156799C18.783 0.156799 18.1235 0.182937 17.464 0.235213C16.91 0.287489 16.356 0.365903 15.802 0.444316C11.9768 1.1239 8.62648 2.87514 5.69822 5.75031C1.89941 9.51417 0 14.036 0 19.2897C0 24.5696 1.89941 29.0653 5.72461 32.7769C8.65286 35.6259 12.0032 37.3772 15.8284 38.0306C16.3824 38.1352 16.9364 38.1874 17.4904 38.2397C18.1235 38.292 18.783 38.3181 19.4689 38.3181C23.7426 38.3181 27.5414 37.1158 30.839 34.7634C31.6568 34.1622 32.4746 33.5088 33.2396 32.7508C33.4771 32.5155 33.7145 32.2803 33.9519 32.045C36.9593 28.8301 38.6213 25.0662 38.9379 20.7796C38.9642 20.283 38.9906 19.7864 38.9906 19.2897C38.9906 18.7931 38.9642 18.2704 38.9379 17.7737C39.2281 15.735 40.0986 13.9576 41.6023 12.4155C43.449 10.5074 45.7177 9.54031 48.4085 9.54031C51.073 9.54031 53.3417 10.5074 55.2147 12.4155C57.0878 14.3235 58.0375 16.6237 58.0375 19.2897C58.0375 21.9297 57.0878 24.2037 55.2147 26.0856C53.3417 27.9937 51.073 28.9346 48.4085 28.9346C45.7441 28.9346 43.5017 27.9937 41.6287 26.0856C40.7845 25.223 40.1514 24.2821 39.6765 23.2627C39.6501 23.6025 39.5974 23.9162 39.5974 24.2559C38.806 27.6277 37.1967 30.5029 34.8225 32.9076C38.5949 36.5146 43.1324 38.3443 48.4085 38.3443C53.7638 38.3443 58.354 36.4885 62.1792 32.7769C66.0044 29.0653 67.9038 24.5696 67.9038 19.2897C67.8511 14.036 65.9253 9.51417 62.1001 5.77645Z" fill="white"/>
<path d="M36.6955 48.6426H27.2512V51.753H36.6955V48.6426Z" fill="#FBAA19"/>
<path fill-rule="evenodd" clip-rule="evenodd" d="M92.2796 48.6426C92.2796 45.1663 94.0207 43.4412 97.5294 43.4412H101.724C105.233 43.4412 106.974 45.1663 106.974 48.6426V52.7985C106.974 56.2749 105.233 58 101.724 58H97.5294C94.0207 58 92.2796 56.2749 92.2796 52.7985V48.6426ZM97.5294 46.5516C96.1312 46.5516 95.4189 47.2573 95.4189 48.6426V52.7985C95.4189 54.1838 96.1312 54.8896 97.5294 54.8896H101.724C103.122 54.8896 103.834 54.21 103.834 52.7985V48.6426C103.834 47.2573 103.122 46.5516 101.724 46.5516H97.5294Z" fill="#FBAA19"/>
<path fill-rule="evenodd" clip-rule="evenodd" d="M78.1396 46.5516V58H75.0002V43.415H84.4445C87.9532 43.415 89.6943 45.1401 89.6943 48.6165C89.6943 51.5178 88.4808 53.1906 86.0274 53.6872L89.6943 58H85.5789L82.0703 53.8441H80.25V50.7075H84.4445C85.8427 50.7075 86.555 50.0279 86.555 48.6165C86.555 47.2312 85.8427 46.5254 84.4445 46.5254H78.1396V46.5516Z" fill="#FBAA19"/>
<path fill-rule="evenodd" clip-rule="evenodd" d="M60.8602 46.5516V58H57.7209V43.415H67.1652C70.6738 43.415 72.415 45.1401 72.415 48.6165C72.415 52.0928 70.6738 53.8179 67.1652 53.8179H62.9707V50.7075H67.1652C68.5634 50.7075 69.2757 50.0279 69.2757 48.6165C69.2757 47.2312 68.5634 46.5254 67.1652 46.5254H60.8602V46.5516Z" fill="#FBAA19"/>
<path fill-rule="evenodd" clip-rule="evenodd" d="M39.9667 58V43.415H49.411C52.9196 43.415 54.6607 44.8003 54.6607 47.571C54.6607 48.6949 54.3705 49.5836 53.7902 50.2632C54.3705 51.0212 54.6607 52.0144 54.6607 53.2952C54.6607 56.4056 52.9196 57.9738 49.411 57.9738H39.9667V58ZM43.1324 46.5516V54.8896H49.4374C50.8355 54.8896 51.5478 54.3668 51.5478 53.3213C51.5478 52.2758 50.8355 51.753 49.4374 51.753H45.2428V48.6426H49.4374C50.8355 48.6426 51.5478 48.3028 51.5478 47.5971C51.5478 46.8914 50.8355 46.5516 49.4374 46.5516H43.1324Z" fill="#FBAA19"/>
<path fill-rule="evenodd" clip-rule="evenodd" d="M27.2512 43.4412H36.6955V46.5516H27.2512C25.853 46.5516 25.1408 47.2573 25.1408 48.6426V52.7985C25.1408 54.1838 25.853 54.8896 27.2512 54.8896H33.5562H36.6955V58H27.2512C23.7426 58 22.0015 56.2749 22.0015 52.7985V48.6426C22.0015 45.1663 23.7426 43.4412 27.2512 43.4412Z" fill="#FBAA19"/>
<path fill-rule="evenodd" clip-rule="evenodd" d="M10.4204 46.3425L12.1351 43.4412H15.591L12.1351 49.2438L13.0584 51.2564L17.4112 43.4412H20.8407L13.0584 57.9738L10.4204 52.1451L7.7823 57.9738L0 43.4412H3.45587L7.7823 51.2564L8.70562 49.2438L5.24975 43.4412H8.70562L10.4204 46.3425Z" fill="#FBAA19"/>
</g>
<defs>
<clipPath id="clip0_13_71">
<rect width="107" height="58" fill="white"/>
</clipPath>
</defs>
</svg>
